<?xml version="1.0" encoding="UTF-8"?>
<svg id="Layer_2" data-name="Layer 2" xmlns="http://www.w3.org/2000/svg" xmlns:xlink="http://www.w3.org/1999/xlink" viewBox="0 0 26.13 56.46">
  <defs>
    <style>
      .cls-1 {
        fill: #002087;
      }

      .cls-2 {
        clip-path: url(#clippath);
      }

      .cls-3 {
        fill: #265bfe;
      }
    </style>
    <clipPath id="clippath">
      <path class="cls-1" d="M24.31,46.78s-5.32,6.43-7.19,7.87c-3.15,2.43-7.62,2.48-10.67-.26-3.38-3.03-3.66-8.23-.64-11.61l1.66-1.85s-4.82-3.89-4.98-4.04c-1.94-1.67-2.74-4.15-2.42-6.51.05-.44.15-.87.29-1.29.18-.54.41-1.06.71-1.56.12-.2.25-.39.39-.58.17-.23,1.7-1.94,1.7-1.94,1.87-2.07,5.19-5.78,5.5-6.03,3.09-2.71,7.78-2.74,10.92.06,1.81,1.63,2.74,3.88,2.74,6.14,0,1.95-.69,3.92-2.11,5.5l-1.52,1.7-.09.11,5.16,4.22c2.93,2.63,3.18,7.14.55,10.07Z"/>
    </clipPath>
  </defs>
  <g id="Layer_1-2" data-name="Layer 1">
    <g>
      <g>
        <path class="cls-1" d="M24.31,46.78s-5.32,6.43-7.19,7.87c-3.15,2.43-7.62,2.48-10.67-.26-3.38-3.03-3.66-8.23-.64-11.61l1.66-1.85s-4.82-3.89-4.98-4.04c-1.94-1.67-2.74-4.15-2.42-6.51.05-.44.15-.87.29-1.29.18-.54.41-1.06.71-1.56.12-.2.25-.39.39-.58.17-.23,1.7-1.94,1.7-1.94,1.87-2.07,5.19-5.78,5.5-6.03,3.09-2.71,7.78-2.74,10.92.06,1.81,1.63,2.74,3.88,2.74,6.14,0,1.95-.69,3.92-2.11,5.5l-1.52,1.7-.09.11,5.16,4.22c2.93,2.63,3.18,7.14.55,10.07Z"/>
        <g class="cls-2">
          <path class="cls-3" d="M24.5,46.71c-2.32,2.74-4.41,5.58-7.38,7.94,1.02-6.63-6.25-11.26-9.65-13.72,0,0-4.82-3.89-4.98-4.04-1.94-1.67-2.74-4.15-2.42-6.51.05-.44.15-.87.29-1.29.18-.54.41-1.06.71-1.56.12-.2.24-.4.39-.58.61-.77,6.89-7.72,7.2-7.98-.59,6.48,6.07,10.32,9.94,13.51,1.29,1.06,5.16,4.22,5.16,4.22,2.95,2.68,3.29,6.99.74,10Z"/>
        </g>
      </g>
      <circle class="cls-3" cx="13.1" cy="7.82" r="7.82"/>
    </g>
  </g>
</svg>
